<svg width="549" height="491" viewBox="0 0 549 491" fill="none" xmlns="http://www.w3.org/2000/svg">
<g clip-path="url(#clip0_103_2)">
<path d="M366.385 172.649H182.781C179.63 172.645 176.608 171.407 174.379 169.205C172.151 167.003 170.897 164.018 170.894 160.904V18.4317C170.896 16.1505 171.814 13.9634 173.447 12.3502C175.08 10.7371 177.294 9.82969 179.603 9.82706H369.414C371.762 9.8297 374.014 10.7528 375.675 12.3938C377.336 14.0348 378.271 16.2598 378.273 18.5805V160.904C378.27 164.018 377.016 167.003 374.787 169.205C372.559 171.407 369.537 172.645 366.385 172.649Z" fill="#F2F2F2"/>
<path d="M194.309 160.904H354.858C357.915 160.904 360.847 159.704 363.009 157.568C365.171 155.432 366.385 152.535 366.385 149.515V40.2175C366.385 37.1969 365.171 34.3001 363.009 32.1642C360.847 30.0284 357.915 28.8285 354.858 28.8285H194.309C191.252 28.8285 188.32 30.0284 186.158 32.1642C183.996 34.3001 182.781 37.1969 182.781 40.2175V149.515C182.781 152.535 183.996 155.432 186.158 157.568C188.32 159.704 191.252 160.904 194.309 160.904Z" fill="white"/>
<path d="M378.108 17.7599H170.727V11.7804C170.731 8.65616 171.99 5.6613 174.227 3.45282C176.463 1.24434 179.496 0.00259056 182.658 0H366.177C369.339 0.00256609 372.371 1.2443 374.608 3.45279C376.844 5.66127 378.103 8.65615 378.108 11.7804V17.7599Z" fill="#CCCCCC"/>
<path d="M192.41 11.9467C194.114 11.9467 195.496 10.5816 195.496 8.89766C195.496 7.21375 194.114 5.84866 192.41 5.84866C190.705 5.84866 189.324 7.21375 189.324 8.89766C189.324 10.5816 190.705 11.9467 192.41 11.9467Z" fill="white"/>
<path d="M204.124 11.9467C205.828 11.9467 207.21 10.5816 207.21 8.89766C207.21 7.21375 205.828 5.84866 204.124 5.84866C202.419 5.84866 201.038 7.21375 201.038 8.89766C201.038 10.5816 202.419 11.9467 204.124 11.9467Z" fill="white"/>
<path d="M215.838 11.9467C217.542 11.9467 218.924 10.5816 218.924 8.89766C218.924 7.21375 217.542 5.84866 215.838 5.84866C214.133 5.84866 212.752 7.21375 212.752 8.89766C212.752 10.5816 214.133 11.9467 215.838 11.9467Z" fill="white"/>
<path d="M206.123 80.0477H198.172C197.741 80.0472 197.328 79.8778 197.023 79.5766C196.718 79.2753 196.546 78.8669 196.546 78.4409V70.5853C196.546 70.1593 196.718 69.7509 197.023 69.4496C197.328 69.1484 197.741 68.979 198.172 68.9785H206.123C206.555 68.979 206.968 69.1484 207.273 69.4496C207.578 69.7509 207.749 70.1593 207.75 70.5853V78.4409C207.749 78.8669 207.578 79.2753 207.273 79.5766C206.968 79.8778 206.555 80.0472 206.123 80.0477Z" fill="#6C63FF"/>
<path d="M206.123 100.401H198.172C197.741 100.4 197.328 100.231 197.023 99.9297C196.718 99.6284 196.546 99.22 196.546 98.794V90.9384C196.546 90.5124 196.718 90.104 197.023 89.8028C197.328 89.5015 197.741 89.3321 198.172 89.3316H206.123C206.555 89.3321 206.968 89.5015 207.273 89.8028C207.578 90.104 207.749 90.5124 207.75 90.9384V98.794C207.749 99.22 207.578 99.6284 207.273 99.9297C206.968 100.231 206.555 100.4 206.123 100.401Z" fill="#3F3D56"/>
<path d="M206.123 120.754H198.172C197.741 120.753 197.328 120.584 197.023 120.283C196.718 119.982 196.546 119.573 196.546 119.147V111.292C196.546 110.866 196.718 110.457 197.023 110.156C197.328 109.855 197.741 109.685 198.172 109.685H206.123C206.555 109.685 206.968 109.855 207.273 110.156C207.578 110.457 207.749 110.866 207.75 111.292V119.147C207.749 119.573 207.578 119.982 207.273 120.283C206.968 120.584 206.555 120.753 206.123 120.754Z" fill="#CCCCCC"/>
<path d="M258.167 76.1199H219.857C219.426 76.119 219.014 75.9494 218.709 75.6481C218.405 75.3469 218.234 74.9387 218.234 74.5131C218.234 74.0875 218.405 73.6794 218.709 73.3781C219.014 73.0769 219.426 72.9072 219.857 72.9063H258.167C258.381 72.9058 258.593 72.9471 258.791 73.0276C258.988 73.1082 259.168 73.2265 259.32 73.3757C259.471 73.525 259.591 73.7023 259.673 73.8974C259.755 74.0926 259.797 74.3018 259.797 74.5131C259.797 74.7244 259.755 74.9336 259.673 75.1288C259.591 75.324 259.471 75.5013 259.32 75.6505C259.168 75.7998 258.988 75.918 258.791 75.9986C258.593 76.0791 258.381 76.1204 258.167 76.1199Z" fill="#CCCCCC"/>
<path d="M258.167 96.473H219.857C219.426 96.4721 219.014 96.3025 218.709 96.0012C218.405 95.7 218.234 95.2918 218.234 94.8662C218.234 94.4407 218.405 94.0325 218.709 93.7312C219.014 93.43 219.426 93.2603 219.857 93.2594H258.167C258.599 93.2594 259.012 93.4287 259.317 93.73C259.622 94.0314 259.794 94.4401 259.794 94.8662C259.794 95.2924 259.622 95.7011 259.317 96.0024C259.012 96.3038 258.599 96.473 258.167 96.473Z" fill="#CCCCCC"/>
<path d="M258.167 116.826H219.857C219.426 116.825 219.014 116.656 218.709 116.354C218.405 116.053 218.234 115.645 218.234 115.219C218.234 114.794 218.405 114.386 218.709 114.084C219.014 113.783 219.426 113.613 219.857 113.613H258.167C258.381 113.612 258.593 113.653 258.791 113.734C258.988 113.814 259.168 113.933 259.32 114.082C259.471 114.231 259.591 114.408 259.673 114.604C259.755 114.799 259.797 115.008 259.797 115.219C259.797 115.431 259.755 115.64 259.673 115.835C259.591 116.03 259.471 116.207 259.32 116.357C259.168 116.506 258.988 116.624 258.791 116.705C258.593 116.785 258.381 116.827 258.167 116.826Z" fill="#CCCCCC"/>
<path d="M352.557 95.3765C352.598 94.701 352.621 94.0209 352.621 93.3352C352.621 84.4024 349.029 75.8354 342.636 69.5189C336.243 63.2024 327.571 59.6538 318.53 59.6538V95.3765H352.557Z" fill="#6C63FF"/>
<path d="M315.947 98.4385V62.7158C309.293 62.7155 302.783 64.6395 297.222 68.2504C291.661 71.8614 287.291 77.0014 284.651 83.0366C282.012 89.0719 281.218 95.7385 282.367 102.214C283.516 108.69 286.559 114.692 291.119 119.48C295.68 124.268 301.559 127.632 308.032 129.159C314.505 130.685 321.288 130.306 327.546 128.069C333.804 125.832 339.262 121.834 343.247 116.569C347.232 111.304 349.571 105.001 349.974 98.4385H315.947Z" fill="#3F3D56"/>
<path d="M548.28 491H0.720472C0.529391 491 0.346136 490.925 0.211021 490.792C0.0759062 490.658 0 490.477 0 490.288C0 490.099 0.0759062 489.918 0.211021 489.785C0.346136 489.651 0.529391 489.576 0.720472 489.576H548.28C548.471 489.576 548.654 489.651 548.789 489.785C548.924 489.918 549 490.099 549 490.288C549 490.477 548.924 490.658 548.789 490.792C548.654 490.925 548.471 491 548.28 491Z" fill="#5038ED"/>
<path d="M363.615 293.926C363.856 294.249 364.07 294.589 364.256 294.945L400.362 298.956L405.613 291.947L417.356 298.394L407.019 315.42L362.785 303.95C361.659 305.02 360.231 305.725 358.69 305.972C357.149 306.22 355.568 305.998 354.157 305.336C352.747 304.674 351.574 303.604 350.794 302.268C350.014 300.931 349.665 299.392 349.792 297.854C349.919 296.317 350.518 294.854 351.507 293.66C352.496 292.467 353.83 291.599 355.33 291.173C356.831 290.746 358.427 290.781 359.907 291.273C361.387 291.765 362.681 292.69 363.615 293.926Z" fill="#FFB8B8"/>
<path d="M179.388 284.717C178.475 285.247 177.456 285.573 176.401 285.672C175.347 285.771 174.283 285.64 173.285 285.289C172.288 284.937 171.38 284.374 170.627 283.639C169.873 282.904 169.292 282.014 168.924 281.033L143.183 281.563L150.314 270.379L173.664 271.59C175.374 271.089 177.21 271.224 178.825 271.971C180.44 272.717 181.722 274.024 182.428 275.642C183.133 277.26 183.214 279.077 182.653 280.75C182.093 282.422 180.932 283.834 179.388 284.717Z" fill="#FFB8B8"/>
<path d="M168.075 281.515C167.871 282.189 167.448 282.778 166.871 283.192C166.295 283.605 165.597 283.82 164.885 283.803L117.775 282.62L75.1188 270.142C73.945 269.799 72.852 269.229 71.9033 268.464C70.9546 267.7 70.1692 266.757 69.5927 265.69C69.0162 264.623 68.6602 263.454 68.5453 262.249C68.4304 261.045 68.5589 259.831 68.9234 258.676C69.2879 257.522 69.881 256.45 70.6684 255.524C71.4558 254.598 72.4216 253.836 73.5098 253.282C74.598 252.728 75.7868 252.393 77.0071 252.297C78.2273 252.201 79.4548 252.346 80.618 252.723L119.156 265.207L165.411 269.617C166.222 269.698 166.972 270.076 167.514 270.676C168.056 271.276 168.352 272.055 168.342 272.859L168.208 280.654C168.203 280.946 168.159 281.236 168.075 281.515Z" fill="#3F3D56"/>
<path d="M99.7573 481.614L108.59 481.613L112.792 447.953L99.7559 447.954L99.7573 481.614Z" fill="#FFB8B8"/>
<path d="M97.504 478.764L114.899 478.764H114.9C116.355 478.764 117.797 479.047 119.142 479.597C120.487 480.148 121.709 480.954 122.738 481.971C123.768 482.988 124.584 484.196 125.141 485.525C125.699 486.853 125.985 488.278 125.985 489.716V490.072L97.5046 490.073L97.504 478.764Z" fill="#2F2E41"/>
<path d="M73.8203 481.614L82.6526 481.613L86.8551 447.953L73.8189 447.954L73.8203 481.614Z" fill="#FFB8B8"/>
<path d="M71.567 478.764L88.962 478.764H88.9627C90.4185 478.764 91.86 479.047 93.2049 479.597C94.5499 480.148 95.772 480.954 96.8014 481.971C97.8308 482.988 98.6473 484.196 99.2044 485.525C99.7615 486.853 100.048 488.278 100.048 489.716V490.072L71.5676 490.073L71.567 478.764Z" fill="#2F2E41"/>
<path d="M67.8923 345.58L70.0014 469.218C70.0081 469.61 70.0964 469.996 70.2609 470.352C70.4255 470.708 70.6626 471.027 70.9575 471.289C71.2524 471.55 71.5988 471.749 71.975 471.872C72.3512 471.996 72.7491 472.041 73.1438 472.006L83.4799 471.077C84.1578 471.016 84.7921 470.72 85.2702 470.242C85.7484 469.763 86.0396 469.132 86.0922 468.462L92.1434 391.34C92.1576 391.159 92.2414 390.99 92.3776 390.868C92.5138 390.746 92.692 390.68 92.8759 390.684C93.0598 390.687 93.2353 390.76 93.3665 390.887C93.4977 391.015 93.5747 391.187 93.5816 391.368L96.6061 470.256C96.6344 470.992 96.9501 471.688 97.4871 472.199C98.0241 472.71 98.7405 472.995 99.486 472.995H110.571C111.305 472.995 112.011 472.718 112.546 472.222C113.08 471.725 113.403 471.045 113.447 470.322L121.207 344.869L75.097 333.48L67.8923 345.58Z" fill="#2F2E41"/>
<path d="M101.337 229.486C111.11 229.486 119.033 221.659 119.033 212.003C119.033 202.348 111.11 194.52 101.337 194.52C91.5645 194.52 83.6419 202.348 83.6419 212.003C83.6419 221.659 91.5645 229.486 101.337 229.486Z" fill="#FFB8B8"/>
<path d="M120.529 350.164C120.512 350.164 120.495 350.163 120.477 350.163L79.1 349.534C78.3047 349.522 77.5415 349.222 76.9559 348.69C76.3702 348.158 76.0029 347.432 75.9238 346.65L75.4554 342.021C75.4465 341.934 75.4049 341.852 75.3387 341.793C75.2724 341.734 75.1863 341.701 75.097 341.701C75.0076 341.701 74.9215 341.734 74.8552 341.793C74.789 341.852 74.7474 341.934 74.7385 342.021L74.2546 346.802C74.1796 347.551 73.8399 348.249 73.2954 348.775C72.7509 349.301 72.0363 349.62 71.2772 349.677L68.3531 349.899C67.8377 349.939 67.3203 349.855 66.8441 349.657C66.3678 349.459 65.9465 349.15 65.6153 348.758C65.2841 348.366 65.0525 347.902 64.94 347.403C64.8274 346.905 64.8371 346.387 64.9683 345.893L67.4861 336.409C72.6962 316.698 73.1153 296.048 68.7093 276.147L67.4581 270.524C66.515 266.323 66.9467 261.935 68.6909 257.993C70.4352 254.05 73.4018 250.757 77.163 248.588L85.2902 243.881L88.9775 238.417C89.691 237.362 90.6515 236.493 91.7775 235.883C92.9034 235.273 94.1617 234.94 95.4456 234.913C100.589 234.802 109.413 235.732 111.071 243.163C115.179 244.55 118.737 247.188 121.233 250.697C123.729 254.207 125.035 258.408 124.963 262.697L123.769 347.005C123.757 347.847 123.41 348.65 122.804 349.241C122.198 349.832 121.381 350.163 120.529 350.164Z" fill="#3F3D56"/>
<path d="M99.9533 222.081C99.8807 224.552 98.1441 225.982 96.0119 227.276C93.8798 228.571 91.3874 229.132 88.9456 229.674C88.6177 229.846 88.2504 229.931 87.8792 229.922C87.508 229.913 87.1454 229.81 86.8264 229.622C86.5074 229.435 86.2427 229.169 86.058 228.85C85.8733 228.532 85.7747 228.172 85.7718 227.805L83.5323 219.39C82.74 216.701 82.1635 213.955 81.8081 211.177C81.2688 205.832 82.5509 200.082 86.3271 196.218C90.1033 192.353 96.6521 190.98 101.177 193.958C106.547 187.181 131.094 202.153 125.039 206.865C123.961 207.703 122.315 206.643 120.947 206.54C119.58 206.437 118.048 206.675 117.179 207.723C116.045 209.093 116.539 211.133 116.071 212.841C115.878 213.443 115.566 214 115.153 214.482C114.741 214.963 114.236 215.359 113.668 215.647C113.099 215.935 112.479 216.108 111.843 216.158C111.206 216.208 110.566 216.133 109.959 215.937C108.829 215.386 107.765 214.711 106.789 213.923C105.74 213.233 104.415 212.723 103.234 213.158C101.678 213.732 101.126 215.614 100.985 217.25C100.748 218.88 100.403 220.494 99.9533 222.081Z" fill="#2F2E41"/>
<path opacity="0.2" d="M104.086 268.937L106.968 303.816L122.098 340.118L99.7631 304.527L104.086 268.937Z" fill="black"/>
<path d="M290.22 459.936L132.314 367.381C129.605 365.789 127.646 363.201 126.866 360.184C126.087 357.167 126.55 353.967 128.155 351.287L201.733 228.756C202.914 226.795 204.833 225.377 207.07 224.813C209.308 224.249 211.68 224.584 213.667 225.746L376.912 321.43C378.931 322.616 380.391 324.545 380.972 326.794C381.553 329.042 381.207 331.427 380.011 333.424L306.51 455.827C304.898 458.504 302.278 460.439 299.225 461.209C296.171 461.98 292.933 461.522 290.22 459.936Z" fill="#F2F2F2"/>
<path d="M148.293 363.091L286.371 444.024C289.001 445.565 292.142 446.011 295.105 445.264C298.067 444.517 300.607 442.638 302.167 440.04L358.613 346.04C360.173 343.442 360.624 340.339 359.868 337.412C359.112 334.485 357.21 331.975 354.58 330.434L216.502 249.501C213.873 247.96 210.732 247.514 207.769 248.261C204.807 249.008 202.266 250.887 200.706 253.485L144.261 347.485C142.701 350.083 142.25 353.186 143.006 356.113C143.762 359.04 145.664 361.55 148.293 363.091Z" fill="white"/>
<path d="M380.292 332.635L201.937 228.094L205.025 222.951C206.642 220.267 209.272 218.326 212.336 217.554C215.4 216.782 218.649 217.242 221.37 218.834L379.203 311.346C381.921 312.942 383.888 315.539 384.671 318.566C385.454 321.593 384.99 324.803 383.38 327.492L380.292 332.635Z" fill="#CCCCCC"/>
<path d="M225.162 234.452C226.866 234.452 228.248 233.087 228.248 231.403C228.248 229.719 226.866 228.354 225.162 228.354C223.457 228.354 222.076 229.719 222.076 231.403C222.076 233.087 223.457 234.452 225.162 234.452Z" fill="white"/>
<path d="M235.236 240.357C236.941 240.357 238.322 238.992 238.322 237.308C238.322 235.624 236.941 234.259 235.236 234.259C233.532 234.259 232.15 235.624 232.15 237.308C232.15 238.992 233.532 240.357 235.236 240.357Z" fill="white"/>
<path d="M245.311 246.262C247.015 246.262 248.397 244.897 248.397 243.213C248.397 241.529 247.015 240.164 245.311 240.164C243.606 240.164 242.225 241.529 242.225 243.213C242.225 244.897 243.606 246.262 245.311 246.262Z" fill="white"/>
<path d="M340.608 350.48L340.407 350.815L342.438 352.004L342.638 351.67L340.608 350.48Z" fill="#E6E6E6"/>
<path d="M336.306 348.411L332.205 346.007L332.406 345.673L336.507 348.076L336.306 348.411ZM328.104 343.603L324.003 341.199L324.204 340.865L328.305 343.269L328.104 343.603ZM319.902 338.796L315.801 336.392L316.002 336.057L320.103 338.461L319.902 338.796ZM311.7 333.988L307.599 331.584L307.8 331.25L311.901 333.654L311.7 333.988ZM303.498 329.18L299.397 326.777L299.597 326.442L303.699 328.846L303.498 329.18ZM295.296 324.373L291.195 321.969L291.395 321.635L295.496 324.038L295.296 324.373ZM287.093 319.565L282.992 317.161L283.193 316.827L287.294 319.231L287.093 319.565ZM278.891 314.758L274.79 312.354L274.991 312.02L279.092 314.423L278.891 314.758ZM270.689 309.95L266.588 307.546L266.789 307.212L270.89 309.616L270.689 309.95ZM262.487 305.142L258.386 302.739L258.587 302.404L262.688 304.808L262.487 305.142ZM254.285 300.335L250.184 297.931L250.384 297.597L254.486 300.001L254.285 300.335ZM246.083 295.527L241.982 293.123L242.182 292.789L246.283 295.193L246.083 295.527ZM237.88 290.72L233.779 288.316L233.98 287.982L238.081 290.385L237.88 290.72ZM229.678 285.912L225.577 283.508L225.778 283.174L229.879 285.578L229.678 285.912ZM221.476 281.104L217.375 278.701L217.576 278.366L221.677 280.77L221.476 281.104ZM213.274 276.297L209.173 273.893L209.374 273.559L213.475 275.963L213.274 276.297Z" fill="#E6E6E6"/>
<path d="M203.243 269.965L203.042 270.299L205.072 271.489L205.273 271.155L203.243 269.965Z" fill="#E6E6E6"/>
<path d="M255.288 342.5L255.087 342.834L257.117 344.024L257.318 343.69L255.288 342.5Z" fill="#E6E6E6"/>
<path d="M251.047 340.466L247.007 338.098L247.207 337.764L251.248 340.132L251.047 340.466ZM242.967 335.73L238.926 333.362L239.127 333.027L243.167 335.396L242.967 335.73ZM234.886 330.994L230.846 328.626L231.047 328.291L235.087 330.659L234.886 330.994ZM226.806 326.257L222.766 323.889L222.967 323.555L227.007 325.923L226.806 326.257ZM218.726 321.521L214.685 319.153L214.886 318.819L218.926 321.187L218.726 321.521ZM210.645 316.785L206.605 314.417L206.806 314.083L210.846 316.451L210.645 316.785ZM202.565 312.049L198.525 309.681L198.725 309.347L202.766 311.715L202.565 312.049ZM194.485 307.313L190.444 304.945L190.645 304.61L194.685 306.978L194.485 307.313Z" fill="#E6E6E6"/>
<path d="M184.575 301.052L184.374 301.387L186.404 302.577L186.605 302.242L184.575 301.052Z" fill="#E6E6E6"/>
<path d="M206.87 334.005L206.67 334.34L208.7 335.529L208.9 335.195L206.87 334.005Z" fill="#E6E6E6"/>
<path d="M202.513 331.903L198.356 329.467L198.557 329.132L202.714 331.569L202.513 331.903ZM194.199 327.03L190.043 324.594L190.243 324.26L194.4 326.696L194.199 327.03ZM185.886 322.157L181.729 319.721L181.93 319.387L186.087 321.823L185.886 322.157Z" fill="#E6E6E6"/>
<path d="M175.743 315.76L175.542 316.095L177.572 317.285L177.773 316.95L175.743 315.76Z" fill="#E6E6E6"/>
<path d="M191.798 359.105L191.598 359.439L193.628 360.629L193.828 360.295L191.798 359.105Z" fill="#E6E6E6"/>
<path d="M187.441 357.003L183.284 354.566L183.485 354.232L187.642 356.668L187.441 357.003ZM179.127 352.13L174.971 349.694L175.171 349.359L179.328 351.796L179.127 352.13ZM170.814 347.257L166.657 344.821L166.858 344.486L171.015 346.923L170.814 347.257Z" fill="#E6E6E6"/>
<path d="M160.671 340.86L160.47 341.194L162.5 342.384L162.701 342.05L160.671 340.86Z" fill="#E6E6E6"/>
<path d="M171.762 348.159L288.774 416.744C291.609 418.402 294.993 418.881 298.185 418.076C301.377 417.271 304.116 415.247 305.8 412.45L339.988 355.515L339.753 355.386L262.183 374.947L256.039 351.177C255.926 350.738 255.713 350.33 255.414 349.986C255.116 349.642 254.741 349.371 254.319 349.194C253.673 348.937 252.959 348.897 252.288 349.081L211.638 359.331L207.145 341.952C207.048 341.577 206.878 341.224 206.643 340.914C206.408 340.604 206.114 340.343 205.777 340.146C205.44 339.948 205.067 339.818 204.679 339.763C204.291 339.708 203.896 339.729 203.516 339.825C203.242 339.897 176.79 346.821 171.762 348.159Z" fill="#6C63FF"/>
<path d="M171.062 348.201L170.965 347.824L203.494 339.62C204.353 339.404 205.264 339.534 206.027 339.981C206.789 340.428 207.341 341.156 207.561 342.004L211.963 359.041L252.388 348.846C253.247 348.63 254.158 348.76 254.92 349.207C255.683 349.654 256.234 350.381 256.455 351.229L262.508 374.658L340.482 354.992L340.579 355.368L262.224 375.131L256.073 351.326C255.978 350.955 255.809 350.606 255.577 350.3C255.344 349.993 255.053 349.735 254.72 349.54C254.387 349.344 254.018 349.216 253.634 349.161C253.251 349.107 252.86 349.128 252.485 349.222L211.679 359.514L207.18 342.1C206.985 341.352 206.498 340.71 205.826 340.315C205.153 339.921 204.349 339.806 203.591 339.997L171.062 348.201Z" fill="#3F3D56"/>
<path d="M208.8 338.083C210.321 338.083 211.554 336.865 211.554 335.362C211.554 333.86 210.321 332.642 208.8 332.642C207.279 332.642 206.046 333.86 206.046 335.362C206.046 336.865 207.279 338.083 208.8 338.083Z" fill="#3F3D56"/>
<path d="M257.218 346.578C258.738 346.578 259.971 345.36 259.971 343.857C259.971 342.354 258.738 341.136 257.218 341.136C255.697 341.136 254.464 342.354 254.464 343.857C254.464 345.36 255.697 346.578 257.218 346.578Z" fill="#3F3D56"/>
<path d="M341.57 353.13C343.091 353.13 344.324 351.912 344.324 350.409C344.324 348.906 343.091 347.688 341.57 347.688C340.049 347.688 338.816 348.906 338.816 350.409C338.816 351.912 340.049 353.13 341.57 353.13Z" fill="#3F3D56"/>
<path d="M125.636 353.637C124.81 352.982 124.139 352.156 123.672 351.217C123.204 350.278 122.95 349.249 122.928 348.203C122.906 347.157 123.117 346.119 123.545 345.162C123.973 344.204 124.609 343.352 125.407 342.664L115.768 319.077L128.882 321.693L136.025 343.69C137.106 345.091 137.63 346.836 137.497 348.592C137.363 350.349 136.582 351.997 135.302 353.223C134.021 354.449 132.33 355.168 130.548 355.245C128.767 355.321 127.019 354.749 125.636 353.637Z" fill="#FFB8B8"/>
<path d="M125.476 343.418C124.765 343.468 124.058 343.286 123.462 342.901C122.866 342.515 122.415 341.946 122.179 341.283L106.575 297.351L103.24 253.522C103.149 252.316 103.3 251.104 103.687 249.956C104.073 248.808 104.687 247.748 105.492 246.837C106.297 245.926 107.277 245.182 108.376 244.648C109.474 244.114 110.669 243.802 111.891 243.729C113.113 243.656 114.338 243.823 115.493 244.222C116.649 244.62 117.713 245.242 118.624 246.05C119.534 246.859 120.273 247.838 120.797 248.931C121.321 250.024 121.62 251.209 121.676 252.418L123.543 292.445L135.789 336.733C136 337.51 135.909 338.337 135.533 339.051C135.158 339.765 134.526 340.315 133.761 340.591L126.337 343.234C126.06 343.334 125.77 343.395 125.476 343.418Z" fill="#3F3D56"/>
<path d="M414.79 304.491C414.499 304.365 414.228 304.198 413.985 303.995L399.475 291.918C399.126 291.628 398.842 291.269 398.64 290.865C398.439 290.461 398.325 290.02 398.305 289.57C398.285 289.119 398.36 288.67 398.525 288.25C398.689 287.83 398.941 287.448 399.263 287.129L412.43 274.066C412.983 273.512 413.719 273.174 414.504 273.112C415.288 273.051 416.069 273.27 416.703 273.729L426.661 280.874C427.283 281.32 427.727 281.966 427.917 282.702C428.108 283.437 428.033 284.215 427.704 284.901L419.09 302.897C418.723 303.662 418.069 304.257 417.267 304.554C416.464 304.852 415.576 304.829 414.79 304.491Z" fill="#6C63FF"/>
<path d="M471.388 475.299L462.721 477.629L449.501 445.711L462.293 442.273L471.388 475.299Z" fill="#FFB8B8"/>
<path d="M455.683 476.893L472.571 472.354L475.435 482.751L448.197 490.073L448.149 489.9C447.402 487.189 447.777 484.295 449.189 481.856C450.602 479.416 452.938 477.631 455.683 476.893Z" fill="#2F2E41"/>
<path d="M397.298 481.833L388.317 481.832L384.044 447.605L397.3 447.606L397.298 481.833Z" fill="#FFB8B8"/>
<path d="M381.72 479.297H399.223V490.072H370.995V489.894C370.995 487.083 372.125 484.388 374.136 482.401C376.148 480.413 378.876 479.297 381.72 479.297Z" fill="#2F2E41"/>
<path d="M410.829 255.846C420.766 255.846 428.822 247.886 428.822 238.068C428.822 228.25 420.766 220.291 410.829 220.291C400.891 220.291 392.835 228.25 392.835 238.068C392.835 247.886 400.891 255.846 410.829 255.846Z" fill="#FFB8B8"/>
<path d="M396.748 457.429H384.474C383.635 457.427 382.828 457.111 382.217 456.543C381.605 455.976 381.235 455.2 381.181 454.372C377.524 396.93 379.663 355.725 387.913 324.699C387.949 324.564 387.994 324.43 388.047 324.3L388.704 322.676C388.947 322.071 389.369 321.551 389.915 321.186C390.461 320.821 391.106 320.627 391.766 320.629H417.006C417.481 320.628 417.951 320.73 418.383 320.926C418.815 321.122 419.199 321.409 419.509 321.766L422.937 325.718C423.004 325.795 423.066 325.873 423.127 325.956C438.586 347.255 452.44 388.894 468.485 444.863C468.721 445.676 468.627 446.549 468.223 447.294C467.818 448.04 467.134 448.6 466.317 448.856L453.127 453.026C452.369 453.262 451.552 453.221 450.822 452.911C450.093 452.601 449.5 452.043 449.152 451.338L414.922 381.196C414.683 380.705 414.29 380.304 413.802 380.052C413.314 379.799 412.757 379.709 412.213 379.794C411.668 379.879 411.166 380.135 410.781 380.523C410.395 380.912 410.147 381.413 410.072 381.953L400.015 454.613C399.904 455.392 399.513 456.106 398.913 456.623C398.313 457.14 397.545 457.426 396.748 457.429Z" fill="#2F2E41"/>
<path d="M421.553 326.007C421.519 326.007 421.484 326.006 421.45 326.006L390.791 325.049C390.003 325.027 389.249 324.726 388.667 324.201C388.084 323.676 387.713 322.961 387.62 322.187C383.733 291.106 394.392 282.779 399.155 280.642C399.553 280.465 399.898 280.189 400.156 279.841C400.415 279.493 400.578 279.085 400.629 278.657L401.041 275.399C401.112 274.824 401.337 274.277 401.693 273.817C409.161 264.259 419.358 261.198 424.772 260.225C425.211 260.147 425.662 260.158 426.097 260.258C426.531 260.357 426.941 260.543 427.301 260.803C427.66 261.064 427.963 261.394 428.19 261.773C428.416 262.153 428.563 262.574 428.619 263.011L429.237 267.689C429.3 268.136 429.48 268.558 429.759 268.914C445.334 289.03 427.983 318.731 424.347 324.481C424.05 324.948 423.638 325.333 423.149 325.6C422.66 325.866 422.111 326.007 421.553 326.007Z" fill="#6C63FF"/>
<path d="M430.626 227.012C429.29 223.009 428.303 218.901 427.678 214.731C427.481 212.304 428.11 209.692 429.899 208.017C433.248 204.883 438.937 206.376 442.439 209.342C447.499 213.629 450.023 220.217 450.977 226.736C451.931 233.254 451.511 239.883 451.741 246.465C451.971 253.047 452.923 259.815 456.32 265.482C459.717 271.149 466.02 275.499 472.668 275.017C475.351 274.874 477.9 273.807 479.87 272.002C480.837 271.092 481.57 269.967 482.006 268.721C482.443 267.474 482.57 266.142 482.378 264.837C485.776 270.849 484.054 278.996 478.985 283.722C473.917 288.448 466.12 289.784 459.457 287.766C452.794 285.748 447.31 280.689 444.034 274.612C440.758 268.534 439.558 261.514 439.732 254.63C439.866 249.344 440.775 244.015 439.871 238.804C438.967 233.592 435.666 228.301 430.46 227.074L430.626 227.012Z" fill="#2F2E41"/>
<path d="M407.249 233.864C406.362 236.793 402.967 238.599 399.913 238.104C398.392 237.791 396.986 237.078 395.843 236.04C394.7 235.001 393.862 233.677 393.419 232.206C392.581 229.227 392.924 226.044 394.38 223.306C395.182 221.665 396.304 220.197 397.681 218.985C399.059 217.773 400.664 216.841 402.406 216.243C404.159 215.669 406.025 215.52 407.847 215.808C409.67 216.095 411.396 216.812 412.88 217.896C413.038 217.238 413.37 216.633 413.844 216.145C414.317 215.656 414.913 215.3 415.571 215.115C416.897 214.762 418.296 214.782 419.611 215.174C423.398 216.24 426.681 218.6 428.874 221.832C431.039 225.054 432.471 228.702 433.072 232.524C434.105 238.255 433.724 244.518 430.466 249.369C427.208 254.22 420.542 257.084 415.135 254.771C414.798 253.068 415.596 251.353 416.52 249.878C417.445 248.402 418.54 246.964 418.895 245.265C419.25 243.565 418.569 241.486 416.905 240.93C415.486 240.456 413.972 241.224 412.477 241.317C411.627 241.37 410.779 241.201 410.017 240.827C409.254 240.454 408.605 239.889 408.133 239.189C407.662 238.489 407.385 237.679 407.33 236.84C407.275 236.001 407.445 235.163 407.822 234.409L407.249 233.864Z" fill="#2F2E41"/>
<path d="M361.645 307.1C361.943 307.372 362.218 307.667 362.469 307.981L398.692 305.196L402.512 297.334L415.274 301.479L408.371 320.125L362.742 317.099C361.841 318.359 360.573 319.318 359.106 319.848C357.64 320.378 356.045 320.454 354.534 320.067C353.022 319.68 351.666 318.847 350.645 317.68C349.624 316.513 348.987 315.066 348.819 313.532C348.651 311.999 348.959 310.451 349.703 309.094C350.447 307.738 351.591 306.637 352.983 305.939C354.376 305.241 355.95 304.978 357.497 305.185C359.045 305.393 360.491 306.061 361.645 307.1Z" fill="#FFB8B8"/>
<path d="M415.078 313.898C414.773 313.813 414.481 313.684 414.213 313.516L398.171 303.505C397.786 303.264 397.455 302.947 397.2 302.574C396.944 302.201 396.77 301.779 396.689 301.336C396.607 300.892 396.619 300.437 396.724 299.999C396.83 299.56 397.026 299.148 397.301 298.789L408.544 284.074C409.015 283.452 409.698 283.018 410.466 282.851C411.235 282.684 412.038 282.796 412.73 283.166L423.581 288.903C424.258 289.261 424.788 289.842 425.078 290.545C425.368 291.248 425.401 292.028 425.17 292.752L419.118 311.74C418.86 312.548 418.295 313.225 417.541 313.628C416.786 314.031 415.903 314.128 415.078 313.898Z" fill="#6C63FF"/>
</g>
<defs>
<clipPath id="clip0_103_2">
<rect width="549" height="491" fill="white"/>
</clipPath>
</defs>
</svg>
